<svg width="1940" height="1546" viewBox="0 0 1940 1546" fill="none" xmlns="http://www.w3.org/2000/svg">
<path d="M941.513 49.3693C1009.26 49.5613 1070.01 55.8272 1135.86 73.371L1135.48 480.192C1079.1 536.541 1017.53 601.126 960.283 655.289C934.199 632.911 903.387 616.747 870.148 608.016C810.793 591.87 747.44 600.68 694.745 632.403C673.072 645.4 653.655 661.831 637.251 681.056C620.218 701.058 613.352 716.11 600.196 737.598C569.543 787.663 547.569 834.881 533.064 892.107C503.869 1007.25 521.485 1129.28 582.055 1231.46C620.819 1296.7 676.372 1350.35 742.918 1386.79C753.04 1392.33 772.873 1403.01 783.344 1405.64C783.329 1405.52 731.399 1374.34 726.243 1370.74C653.24 1320.38 597.561 1248.71 566.809 1165.51C523.265 1048.19 530.844 928.031 582.577 814.899C575.264 886.536 608.055 960.616 662.72 1006.4C698.139 1036.06 729.495 1047.75 773.746 1057.06C773.333 1114.02 773.349 1170.99 773.809 1227.95L944.385 1433.45C955.935 1433.62 968.978 1433 980.623 1432.72L877.176 1307.27L802.654 1217.54C801.94 1165.21 802.543 1111.53 802.527 1059.1L806.176 1059.05C878.874 1058 926.615 1036.78 977.069 984.781L1184.99 1122.14C1221.72 1210.44 1261.06 1314.73 1300.91 1400.21C1204.41 1460.78 1060.56 1508.79 946.083 1511.76C757.229 1516.75 574.046 1446.87 436.482 1317.34C294.36 1181.61 207.275 998.786 203.11 801.098C198.756 606.497 271.542 418.077 405.58 276.969C549.58 126.915 735.445 53.8735 941.513 49.3693Z" fill="#FEFFFE"/>
<path d="M1165 425.765C1207.91 445.844 1256.58 455.822 1298.6 477.68C1315.7 486.572 1409.98 584.605 1431.2 605.559C1482.23 655.944 1536.1 704.893 1584.95 757.337C1599.53 772.982 1712.48 907.221 1715.18 915.419C1714.01 921.382 1714.72 919.275 1710.48 924.257C1699.34 923.057 1671.5 912.726 1659.79 908.7C1632.53 899.412 1605.35 889.903 1578.24 880.177C1534.62 865.712 1481.47 843.147 1438.11 832.522C1419.69 828.003 1342.59 831.422 1320.37 831.415L1038.02 831.436C1037.56 770.214 1020.38 723.113 980.946 676.51C1035.64 616.984 1106.45 549.578 1164.56 491.654C1165.16 470.213 1164.89 447.32 1165 425.765Z" fill="#FEFFFE"/>
<path d="M1188.92 1091.19L1351.14 1091.51C1398.09 1091.57 1428.67 1095.25 1474.59 1080.68C1551.03 1056.41 1631.01 1038.29 1707.6 1014.36C1695.38 1023.52 1653.28 1046.94 1637.69 1056.16L1475.21 1151.69L1307.84 1154.81L1448.45 1228.93C1485.05 1248.3 1517.41 1264.33 1550.81 1288.99C1599.16 1324.68 1647.9 1360.37 1694.92 1397.8C1665.67 1383.91 1636.53 1369.67 1607.24 1355.88C1512.63 1311.39 1414.3 1270.96 1316.74 1233.35C1347.55 1256.13 1478.18 1337.32 1490.37 1356.12C1510.14 1386.64 1526.64 1424.16 1543.95 1456.62C1550.12 1468.22 1556.27 1481.75 1564.19 1492.18C1564.65 1492.78 1565.11 1493.36 1565.57 1493.94C1574.31 1500.54 1593.14 1520.86 1591.34 1533.56C1590.93 1536.4 1590.42 1537.2 1590.41 1540.35C1592.39 1543.35 1591.84 1542.22 1592.72 1545.69C1587.88 1542.38 1570.8 1522.07 1565.87 1516.57C1542.18 1490.24 1518.65 1463.79 1495.26 1437.19C1470.73 1408.85 1460.78 1390.6 1426.24 1373.54C1382.21 1351.81 1338.45 1330.5 1293.97 1309.62L1240.59 1182.12C1230.87 1158.51 1219.27 1127.01 1207.15 1104.34C1205.53 1101.31 1192.7 1093.55 1188.92 1091.19Z" fill="#FEFFFE"/>
<path d="M1301.07 859.875C1342.87 860.201 1388.27 858.438 1429.58 860.254C1444.92 860.928 1501.37 883.394 1518.1 889.211C1577.03 909.304 1635.87 929.75 1694.56 950.55C1592.19 947.672 1477.3 950.143 1373.97 950.178L1373.79 978.635L1571.31 978.857L1736.23 978.675C1666.42 993.726 1592.87 1018.23 1523.35 1036.06C1496.27 1043.02 1462.77 1055.1 1435.74 1059.89C1423.11 1062.12 1385.78 1061.39 1371.51 1061.41L1255.44 1061.31C1286.22 1030.63 1317.31 1004.65 1324.98 959.548C1331.94 918.62 1323.44 892.925 1301.07 859.875Z" fill="#FEFFFE"/>
<path d="M1036.81 859.502L1253.42 859.419C1284.04 875.651 1297.32 903.699 1297.54 937.508C1297.86 988.494 1255 1021.61 1222.12 1054.54L1188.29 1090.14C1127.92 1048.08 1058.18 1003.32 996.102 963.146C1019.11 930.672 1032.07 898.929 1036.81 859.502Z" fill="#FEFFFE"/>
<path d="M1714.07 1044.67L1715.18 1046.57C1653.81 1110.89 1589.21 1174.73 1527.1 1239.18C1505.38 1227.29 1483.55 1215.59 1461.61 1204.11L1419.64 1181.59C1440.47 1182.05 1462.81 1181.3 1483.76 1180.95C1560.81 1136.02 1637.59 1090.59 1714.07 1044.67Z" fill="#FEFFFE"/>
</svg>
