<svg width="8443" height="1747" viewBox="0 0 8443 1747" fill="none" xmlns="http://www.w3.org/2000/svg">
<g clip-path="url(#clip0_8_2)">
<path d="M1040.59 126C1108.34 126.192 1169.09 132.458 1234.93 150.002L1234.55 556.823C1178.18 613.172 1116.6 677.757 1059.36 731.92C1033.27 709.542 1002.46 693.377 969.222 684.647C909.867 668.501 846.514 677.311 793.82 709.034C772.147 722.031 752.73 738.462 736.326 757.687C719.292 777.689 712.427 792.741 699.271 814.229C668.618 864.294 646.643 911.512 632.138 968.738C602.943 1083.88 620.559 1205.91 681.13 1308.09C719.894 1373.33 775.447 1426.98 841.992 1463.42C852.115 1468.96 871.948 1479.64 882.419 1482.27C882.403 1482.15 830.474 1450.98 825.317 1447.37C752.314 1397.01 696.636 1325.34 665.884 1242.14C622.34 1124.82 629.919 1004.66 681.652 891.53C674.339 963.167 707.129 1037.25 761.794 1083.03C797.214 1112.69 828.57 1124.38 872.82 1133.69C872.408 1190.66 872.424 1247.62 872.884 1304.58L1043.46 1510.08C1055.01 1510.25 1068.05 1509.63 1079.7 1509.35L976.251 1383.9L901.728 1294.17C901.014 1241.84 901.617 1188.16 901.601 1135.73L905.25 1135.68C977.949 1134.63 1025.69 1113.41 1076.14 1061.41L1284.07 1198.77C1320.8 1287.08 1360.13 1391.36 1399.99 1476.84C1303.49 1537.41 1159.63 1585.42 1045.16 1588.39C856.304 1593.39 673.12 1523.51 535.557 1393.97C393.435 1258.24 306.349 1075.42 302.185 877.729C297.831 683.128 370.617 494.707 504.655 353.6C648.655 203.546 834.52 130.504 1040.59 126Z" fill="white"/>
<path d="M1264.08 502.396C1306.98 522.475 1355.66 532.453 1397.68 554.31C1414.77 563.203 1509.05 661.236 1530.28 682.19C1581.3 732.575 1635.17 781.524 1684.02 833.968C1698.61 849.612 1811.56 983.852 1814.26 992.049C1813.08 998.013 1813.8 995.906 1809.55 1000.89C1798.42 999.688 1770.57 989.357 1758.86 985.33C1731.6 976.043 1704.42 966.534 1677.32 956.808C1633.7 942.343 1580.54 919.777 1537.19 909.153C1518.76 904.634 1441.67 908.053 1419.44 908.046L1137.1 908.067C1136.64 846.845 1119.45 799.744 1080.02 753.141C1134.72 693.615 1205.52 626.209 1263.63 568.285C1264.24 546.844 1263.96 523.951 1264.08 502.396Z" fill="white"/>
<path d="M1288 1167.82L1450.21 1168.14C1497.16 1168.2 1527.74 1171.88 1573.66 1157.31C1650.1 1133.04 1730.08 1114.93 1806.68 1090.99C1794.45 1100.15 1752.36 1123.57 1736.77 1132.79L1574.28 1228.32L1406.91 1231.44L1547.53 1305.56C1584.13 1324.93 1616.49 1340.97 1649.88 1365.62C1698.23 1401.31 1746.98 1437 1793.99 1474.43C1764.74 1460.54 1735.61 1446.3 1706.31 1432.51C1611.71 1388.02 1513.37 1347.59 1415.82 1309.98C1446.62 1332.76 1577.25 1413.95 1589.45 1432.75C1609.22 1463.27 1625.71 1500.79 1643.02 1533.25C1649.2 1544.85 1655.34 1558.38 1663.27 1568.81C1663.73 1569.42 1664.19 1569.99 1664.65 1570.58C1673.38 1577.17 1692.21 1597.49 1690.42 1610.19C1690 1613.04 1689.5 1613.83 1689.48 1616.98C1691.47 1619.98 1690.91 1618.85 1691.8 1622.32C1686.96 1619.01 1669.87 1598.7 1664.95 1593.2C1641.26 1566.87 1617.73 1540.42 1594.34 1513.82C1569.81 1485.48 1559.85 1467.23 1525.32 1450.17C1481.28 1428.44 1437.52 1407.13 1393.05 1386.25L1339.67 1258.75C1329.95 1235.14 1318.34 1203.64 1306.23 1180.97C1304.61 1177.94 1291.78 1170.18 1288 1167.82Z" fill="white"/>
<path d="M1400.14 936.506C1441.94 936.832 1487.35 935.069 1528.66 936.884C1543.99 937.559 1600.45 960.024 1617.18 965.842C1676.11 985.935 1734.94 1006.38 1793.63 1027.18C1691.27 1024.3 1576.37 1026.77 1473.04 1026.81L1472.87 1055.27L1670.38 1055.49L1835.31 1055.31C1765.5 1070.36 1691.95 1094.86 1622.43 1112.7C1595.34 1119.65 1561.85 1131.74 1534.81 1136.52C1522.19 1138.75 1484.86 1138.02 1470.58 1138.04L1354.52 1137.95C1385.3 1107.26 1416.38 1081.28 1424.06 1036.18C1431.02 995.251 1422.52 969.556 1400.14 936.506Z" fill="white"/>
<path d="M1135.88 936.133L1352.49 936.05C1383.11 952.282 1396.39 980.33 1396.62 1014.14C1396.93 1065.12 1354.08 1098.24 1321.19 1131.17L1287.36 1166.77C1226.99 1124.71 1157.25 1079.95 1095.18 1039.78C1118.18 1007.3 1131.15 975.56 1135.88 936.133Z" fill="white"/>
<path d="M1813.15 1121.3L1814.26 1123.2C1752.88 1187.52 1688.28 1251.36 1626.18 1315.81C1604.46 1303.92 1582.62 1292.23 1560.68 1280.74L1518.71 1258.22C1539.54 1258.68 1561.88 1257.93 1582.83 1257.58C1659.89 1212.65 1736.66 1167.22 1813.15 1121.3Z" fill="white"/>
<path d="M2288.4 1357L1980.3 447H2132.4L2314.4 1002.1C2320.47 1018.57 2326.1 1036.77 2331.3 1056.7C2336.5 1075.77 2341.27 1095.7 2345.6 1116.5C2350.8 1136.43 2355.57 1155.5 2359.9 1173.7C2364.23 1191.9 2368.13 1207.5 2371.6 1220.5L2326.1 1219.2C2337.37 1181.93 2347.33 1150.3 2356 1124.3C2365.53 1098.3 2373.77 1075.33 2380.7 1055.4C2388.5 1035.47 2395.43 1017.7 2401.5 1002.1L2567.9 604.3H2696.6L2857.8 1000.8C2867.33 1022.47 2876.43 1045.43 2885.1 1069.7C2893.77 1093.1 2901.57 1116.5 2908.5 1139.9C2916.3 1162.43 2922.8 1184.97 2928 1207.5L2887.7 1216.6C2892.03 1196.67 2895.5 1179.77 2898.1 1165.9C2901.57 1151.17 2904.6 1137.73 2907.2 1125.6C2910.67 1112.6 2914.13 1100.03 2917.6 1087.9C2921.07 1075.77 2925.4 1062.33 2930.6 1047.6C2935.8 1032.87 2941.43 1015.97 2947.5 996.9L3137.3 447H3288.1L2964.4 1357H2866.9L2617.3 770.7L2634.2 775.9L2388.5 1357H2288.4ZM3526.52 1357V447H3971.12C4023.98 447 4072.52 459.567 4116.72 484.7C4160.92 509.833 4196.02 544.067 4222.02 587.4C4248.02 630.733 4261.02 679.267 4261.02 733C4261.02 784.133 4247.15 831.367 4219.42 874.7C4192.55 918.033 4156.15 952.7 4110.22 978.7C4065.15 1004.7 4015.32 1017.7 3960.72 1017.7H3666.92V1357H3526.52ZM4132.32 1357L3869.72 946.2L4016.62 913.7L4305.22 1358.3L4132.32 1357ZM3666.92 882.5H3963.32C3991.92 882.5 4017.48 876 4040.02 863C4063.42 849.133 4081.62 830.933 4094.62 808.4C4108.48 785 4115.42 759.433 4115.42 731.7C4115.42 703.1 4107.62 677.533 4092.02 655C4077.28 632.467 4056.48 614.7 4029.62 601.7C4003.62 588.7 3974.15 582.2 3941.22 582.2H3666.92V882.5ZM4594.19 1357V447H4734.59V1221.8H5233.79V1357H4594.19ZM5455.77 1357V1254.3L6034.27 560.1L6066.77 583.5H5489.57V447H6221.47V548.4L5644.27 1243.9L5611.77 1220.5H6235.77V1357H5455.77ZM6562.1 1371.3C6526.57 1371.3 6499.7 1362.63 6481.5 1345.3C6463.3 1327.97 6454.2 1304.13 6454.2 1273.8C6454.2 1246.93 6463.3 1223.97 6481.5 1204.9C6500.57 1185.83 6527.43 1176.3 6562.1 1176.3C6597.63 1176.3 6624.5 1184.97 6642.7 1202.3C6660.9 1219.63 6670 1243.47 6670 1273.8C6670 1300.67 6660.47 1323.63 6641.4 1342.7C6623.2 1361.77 6596.77 1371.3 6562.1 1371.3ZM7232.18 1370C7165.44 1370 7106.08 1354.83 7054.08 1324.5C7002.08 1293.3 6960.91 1250.83 6930.58 1197.1C6901.11 1143.37 6886.38 1082.27 6886.38 1013.8C6886.38 945.333 6901.54 884.667 6931.88 831.8C6963.08 778.067 7005.54 736.033 7059.28 705.7C7113.01 675.367 7174.11 660.2 7242.58 660.2C7284.18 660.2 7322.31 665.833 7356.98 677.1C7392.51 687.5 7423.28 702.233 7449.28 721.3C7475.28 740.367 7496.08 761.6 7511.68 785C7527.28 807.533 7535.94 831.367 7537.68 856.5L7505.18 851.3V674.5H7639.08V1357H7505.18V1184.1L7533.78 1182.8C7530.31 1204.47 7519.91 1226.57 7502.58 1249.1C7486.11 1270.77 7463.58 1290.7 7434.98 1308.9C7407.24 1327.1 7376.04 1341.83 7341.38 1353.1C7306.71 1364.37 7270.31 1370 7232.18 1370ZM7265.98 1246.5C7313.64 1246.5 7355.68 1236.53 7392.08 1216.6C7429.34 1196.67 7458.38 1169.37 7479.18 1134.7C7499.98 1099.17 7510.38 1058.87 7510.38 1013.8C7510.38 970.467 7499.98 931.467 7479.18 896.8C7458.38 862.133 7429.34 834.833 7392.08 814.9C7355.68 794.1 7313.64 783.7 7265.98 783.7C7218.31 783.7 7176.28 794.1 7139.88 814.9C7103.48 834.833 7074.88 862.133 7054.08 896.8C7033.28 931.467 7022.88 970.467 7022.88 1013.8C7022.88 1058.87 7033.28 1099.17 7054.08 1134.7C7074.88 1169.37 7103.48 1196.67 7139.88 1216.6C7176.28 1236.53 7218.31 1246.5 7265.98 1246.5ZM7982.85 1357V674.5H8116.75V1357H7982.85ZM8047.85 518.5C8019.25 518.5 7997.15 511.133 7981.55 496.4C7965.95 481.667 7958.15 460.867 7958.15 434C7958.15 408.867 7965.95 388.5 7981.55 372.9C7998.01 357.3 8020.11 349.5 8047.85 349.5C8076.45 349.5 8098.55 356.867 8114.15 371.6C8129.75 386.333 8137.55 407.133 8137.55 434C8137.55 459.133 8129.31 479.5 8112.85 495.1C8097.25 510.7 8075.58 518.5 8047.85 518.5Z" fill="white"/>
</g>
<defs>
<clipPath id="clip0_8_2">
<rect width="8443" height="1747" fill="white"/>
</clipPath>
</defs>
</svg>
